<svg width="550" height="550" viewBox="0 0 550 550" fill="none" xmlns="http://www.w3.org/2000/svg">
  <rect width="550" height="550" fill="#E5F7F6"/>
  <path d="M275 275m-120 0a120 120 0 1 0 240 0a120 120 0 1 0 -240 0" fill="#0D9488" fill-opacity="0.3"/>
  <path d="M275 220C258.4 220 245 233.4 245 250C245 266.6 258.4 280 275 280C291.6 280 305 266.6 305 250C305 233.4 291.6 220 275 220ZM275 270C264.5 270 255 260.5 255 250C255 239.5 264.5 230 275 230C285.5 230 295 239.5 295 250C295 260.5 285.5 270 275 270Z" fill="#0D9488"/>
  <path d="M339 340C339 316.9 310.3 300 275 300C239.7 300 211 316.9 211 340" stroke="#0D9488" stroke-width="10" stroke-linecap="round"/>
</svg>